<?xml version="1.0" encoding="utf-8"?>
<!-- Generator: Adobe Illustrator 25.3.1, SVG Export Plug-In . SVG Version: 6.00 Build 0)  -->
<svg version="1.1" id="Layer_1" xmlns="http://www.w3.org/2000/svg" xmlns:xlink="http://www.w3.org/1999/xlink" x="0px" y="0px"
	 viewBox="0 0 1060.2 1080" style="enable-background:new 0 0 1060.2 1080;" xml:space="preserve">
<style type="text/css">
	.st0{fill:none;stroke:#FFFFFF;stroke-width:12;stroke-miterlimit:10;}
	.st1{fill:#FFFFFF;}
	.st2{fill:none;stroke:#FFFFFF;stroke-width:10;stroke-miterlimit:10;}
</style>
<g>
	<g>
		<path class="st0" d="M532.2,1058.9c-69.8,0-137.5-13.7-201.2-40.6c-61.6-26-116.9-63.3-164.3-110.8
			C119.1,860,81.9,804.7,55.8,743.1c-27-63.7-40.6-131.5-40.6-201.2s13.7-137.5,40.6-201.2c26-61.6,63.3-116.9,110.8-164.3
			C214.1,128.8,269.4,91.5,331,65.5c63.7-27,131.5-40.6,201.2-40.6s137.5,13.7,201.2,40.6c61.6,26,116.9,63.3,164.3,110.8
			c47.5,47.5,84.8,102.8,110.8,164.3c27,63.7,40.6,131.5,40.6,201.2s-13.7,137.5-40.6,201.2c-26,61.6-63.3,116.9-110.8,164.3
			c-47.5,47.5-102.8,84.8-164.3,110.8C669.7,1045.2,602,1058.9,532.2,1058.9z M532.2,34.9c-68.4,0-134.8,13.4-197.4,39.8
			c-60.4,25.5-114.6,62.1-161.2,108.7C127.1,229.9,90.6,284.2,65,344.5C38.6,407,25.2,473.4,25.2,541.9S38.6,676.7,65,739.2
			c25.5,60.4,62.1,114.6,108.7,161.2c46.6,46.6,100.8,83.1,161.2,108.7c62.5,26.4,128.9,39.8,197.4,39.8s134.8-13.4,197.4-39.8
			c60.4-25.5,114.6-62.1,161.2-108.7c46.6-46.6,83.1-100.8,108.7-161.2c26.4-62.5,39.8-128.9,39.8-197.4s-13.4-134.8-39.8-197.4
			c-25.5-60.4-62.1-114.6-108.7-161.2c-46.6-46.6-100.8-83.1-161.2-108.7C667.1,48.3,600.7,34.9,532.2,34.9z"/>
	</g>
	<g>
		<path class="st1" d="M313.9,259.8h36.8V449c0,75.3-36.9,98.5-85.6,98.5c-13.7,0-30.1-2.9-39.2-6.6l5.3-29.8
			c7.6,2.9,18.5,5.4,31,5.4c32.6,0,51.7-14.9,51.7-70.4V259.8z"/>
	</g>
	<g>
		<path class="st1" d="M643.6,562.1h36.5v136.4h1.3c7.4-11,15.3-20.9,22.3-30.1l86.5-106.4h45.3L733.2,682.5l110.5,162.8h-43.4
			l-93-138.8l-27.2,31v107.8h-36.5V562.1z"/>
	</g>
	<g>
		
			<rect x="124.7" y="541.9" transform="matrix(0.7073 -0.707 0.707 0.7073 -232.4771 532.4147)" class="st2" width="803.8" height="10"/>
	</g>
</g>
</svg>
